<svg xmlns="http://www.w3.org/2000/svg" width="19.918" height="17.917" viewBox="0 0 19.918 17.917">
  <g id="Layer_61" data-name="Layer 61" transform="translate(-1 -3)">
    <path id="Path_17" data-name="Path 17" d="M6.972,14.281a.664.664,0,0,1-.664-.531L4.756,5.926A1.991,1.991,0,0,0,2.8,4.327H1.664A.664.664,0,1,1,1.664,3H2.8A3.318,3.318,0,0,1,6.057,5.655l1.579,7.83a.664.664,0,0,1-.531.8Z" transform="translate(0 0)" fill="#b2b2b2"/>
    <path id="Path_18" data-name="Path 18" d="M8.99,20.272H7.756A2.747,2.747,0,0,1,7.5,14.79L19.72,13.682l1.068-5.355H7A.664.664,0,1,1,7,7H21.6a.688.688,0,0,1,.664.8l-1.327,6.636a.664.664,0,0,1-.591.531L7.623,16.118a1.415,1.415,0,0,0,.133,2.827H8.99a.664.664,0,1,1,0,1.327Z" transform="translate(-1.354 -1.346)" fill="#b2b2b2"/>
    <path id="Path_19" data-name="Path 19" d="M24.654,27.309a2.654,2.654,0,1,1,2.654-2.654A2.654,2.654,0,0,1,24.654,27.309Zm0-3.981a1.327,1.327,0,1,0,1.327,1.327A1.327,1.327,0,0,0,24.654,23.327Z" transform="translate(-7.065 -6.392)" fill="#b2b2b2"/>
    <path id="Path_20" data-name="Path 20" d="M12.654,27.309a2.654,2.654,0,1,1,2.654-2.654A2.654,2.654,0,0,1,12.654,27.309Zm0-3.981a1.327,1.327,0,1,0,1.327,1.327A1.327,1.327,0,0,0,12.654,23.327Z" transform="translate(-3.028 -6.392)" fill="#b2b2b2"/>
    <path id="Path_21" data-name="Path 21" d="M20.645,26.327H16.664a.664.664,0,0,1,0-1.327h3.981a.664.664,0,1,1,0,1.327Z" transform="translate(-5.046 -7.401)" fill="#b2b2b2"/>
  </g>
</svg>
