<svg xmlns="http://www.w3.org/2000/svg" width="9.878" height="12.132" viewBox="0 0 9.878 12.132">
  <g id="iconfinder_1814090_delete_garbage_trash_icon" transform="translate(-12.5 -8)">
    <g id="Icon-Trash" transform="translate(12.5 8)">
      <path id="Fill-6" d="M-207.5-205.1h.76v6.079h-.76Z" transform="translate(210.539 208.874)" fill="#f33e3e"/>
      <path id="Fill-7" d="M-201.5-205.1h.76v6.079h-.76Z" transform="translate(206.059 208.874)" fill="#f33e3e"/>
      <path id="Fill-8" d="M-195.5-205.1h.76v6.079h-.76Z" transform="translate(201.579 208.874)" fill="#f33e3e"/>
      <path id="Fill-9" d="M-219.5-214.1h9.878v.76H-219.5Z" transform="translate(219.5 215.594)" fill="#f33e3e"/>
      <path id="Fill-10" d="M-203.651-218.126h-.709v-.76a.4.4,0,0,0-.405-.405h-1.52a.4.4,0,0,0-.405.405v.76h-.709v-.76A1.124,1.124,0,0,1-206.286-220h1.52a1.124,1.124,0,0,1,1.114,1.114v.76" transform="translate(210.465 220)" fill="#f33e3e"/>
      <path id="Fill-11" d="M-210.041-202.417H-214.6a1.229,1.229,0,0,1-1.19-1.114l-.709-9.118.76-.051.709,9.118a.459.459,0,0,0,.431.405h4.559a.44.44,0,0,0,.431-.405l.709-9.118.76.051-.709,9.118a1.209,1.209,0,0,1-1.19,1.114" transform="translate(217.26 214.549)" fill="#f33e3e"/>
    </g>
  </g>
</svg>
