<svg xmlns="http://www.w3.org/2000/svg" width="13.355" height="13.352" viewBox="0 0 13.355 13.352">
  <path id="instagram" d="M6.6,35.078A3.423,3.423,0,1,0,10.027,38.5,3.418,3.418,0,0,0,6.6,35.078Zm0,5.649A2.226,2.226,0,1,1,8.83,38.5,2.23,2.23,0,0,1,6.6,40.727Zm4.362-5.789a.8.8,0,1,1-.8-.8A.8.8,0,0,1,10.966,34.938Zm2.267.81a3.951,3.951,0,0,0-1.079-2.8,3.977,3.977,0,0,0-2.8-1.079c-1.1-.063-4.407-.063-5.509,0a3.972,3.972,0,0,0-2.8,1.076,3.964,3.964,0,0,0-1.079,2.8c-.063,1.1-.063,4.407,0,5.509a3.951,3.951,0,0,0,1.079,2.8,3.983,3.983,0,0,0,2.8,1.079c1.1.063,4.407.063,5.509,0a3.951,3.951,0,0,0,2.8-1.079,3.977,3.977,0,0,0,1.079-2.8C13.3,40.152,13.3,36.851,13.233,35.748Zm-1.424,6.689a2.253,2.253,0,0,1-1.269,1.269,14.715,14.715,0,0,1-3.936.268,14.83,14.83,0,0,1-3.936-.268A2.253,2.253,0,0,1,1.4,42.437,14.715,14.715,0,0,1,1.131,38.5,14.83,14.83,0,0,1,1.4,34.565,2.253,2.253,0,0,1,2.668,33.3,14.715,14.715,0,0,1,6.6,33.028a14.83,14.83,0,0,1,3.936.268,2.253,2.253,0,0,1,1.269,1.269,14.715,14.715,0,0,1,.268,3.936A14.707,14.707,0,0,1,11.809,42.437Z" transform="translate(0.075 -31.825)" fill="#fff"/>
</svg>
