<svg xmlns="http://www.w3.org/2000/svg" width="16.444" height="13.355" viewBox="0 0 16.444 13.355">
  <path id="twitter" d="M14.753,51.41c.01.146.01.292.01.438a9.523,9.523,0,0,1-9.589,9.589A9.524,9.524,0,0,1,0,59.924a6.972,6.972,0,0,0,.814.042A6.749,6.749,0,0,0,5,58.526a3.376,3.376,0,0,1-3.151-2.337,4.25,4.25,0,0,0,.636.052,3.564,3.564,0,0,0,.887-.115,3.371,3.371,0,0,1-2.7-3.308v-.042a3.394,3.394,0,0,0,1.523.428A3.375,3.375,0,0,1,1.148,48.7,9.579,9.579,0,0,0,8.1,52.224a3.8,3.8,0,0,1-.083-.772,3.373,3.373,0,0,1,5.832-2.306,6.635,6.635,0,0,0,2.139-.814A3.361,3.361,0,0,1,14.5,50.19a6.756,6.756,0,0,0,1.941-.522A7.245,7.245,0,0,1,14.753,51.41Z" transform="translate(0 -48.082)" fill="#fff"/>
</svg>
