<?xml version="1.0" standalone="no"?>
<!DOCTYPE svg PUBLIC "-//W3C//DTD SVG 20010904//EN"
 "http://www.w3.org/TR/2001/REC-SVG-20010904/DTD/svg10.dtd">
<svg version="1.0" xmlns="http://www.w3.org/2000/svg"
 width="281.000000pt" height="281.000000pt" viewBox="0 0 281.000000 281.000000"
 preserveAspectRatio="xMidYMid meet">
<metadata>
Created by potrace 1.14, written by Peter Selinger 2001-2017
</metadata>
<g transform="translate(0.000000,281.000000) scale(0.100000,-0.100000)"
fill="#000000" stroke="none">
<path d="M1703 1953 c-10 -4 -13 -122 -13 -543 0 -510 1 -540 18 -549 45 -24
45 -23 46 521 1 282 -1 526 -4 543 -6 29 -22 39 -47 28z"/>
<path d="M171 1806 c-19 -23 -9 -48 24 -59 77 -25 88 -59 90 -277 l1 -145
-135 -5 c-110 -4 -136 -8 -144 -22 -8 -12 -7 -21 2 -32 12 -15 70 -16 551 -16
l537 1 51 25 c85 42 130 129 130 255 1 183 -127 277 -299 222 -61 -20 -152
-102 -187 -168 l-21 -40 -1 82 c0 45 -3 88 -6 97 -7 18 -49 22 -60 4 -4 -6 -7
-100 -7 -210 l0 -198 -170 2 -171 3 -1 181 c-2 171 -3 183 -26 224 -13 24 -35
51 -49 61 -35 26 -94 34 -109 15z m963 -116 c50 -31 71 -81 71 -170 -1 -86
-22 -141 -68 -174 -25 -19 -47 -22 -199 -26 l-170 -5 4 60 c5 69 50 170 105
235 75 88 188 123 257 80z"/>
<path d="M1442 1777 c-7 -8 -12 -115 -14 -297 -3 -326 -6 -336 -83 -382 -34
-21 -43 -31 -38 -45 4 -10 11 -21 16 -24 12 -9 62 6 93 26 27 17 68 92 79 145
9 43 10 564 0 579 -9 15 -40 14 -53 -2z"/>
<path d="M2209 1763 c-166 -42 -279 -188 -281 -362 -1 -192 150 -355 343 -369
215 -15 402 156 400 367 0 36 -4 79 -9 94 l-7 28 -23 -24 c-19 -20 -23 -37
-25 -103 -5 -127 -64 -219 -177 -272 -64 -30 -159 -40 -217 -22 -145 45 -243
201 -221 349 34 225 290 337 481 210 46 -30 48 -31 67 -14 11 10 20 21 20 24
0 3 -22 21 -48 39 -88 60 -203 81 -303 55z"/>
<path d="M2754 1758 c-16 -12 -90 -74 -165 -138 -74 -63 -158 -134 -185 -157
-27 -23 -62 -53 -79 -67 -16 -14 -35 -26 -40 -26 -6 0 -37 27 -70 60 -56 56
-86 72 -99 51 -8 -12 136 -206 158 -214 16 -6 38 11 141 108 160 150 345 326
367 349 45 47 23 73 -28 34z"/>
<path d="M370 1097 c0 -75 1 -77 27 -83 14 -4 42 -1 61 6 25 9 37 9 45 1 14
-14 54 -14 62 -1 4 6 12 7 18 3 21 -13 116 -13 124 0 11 16 12 147 1 147 -4 0
-8 -31 -8 -70 0 -69 0 -70 -26 -70 -17 0 -28 6 -31 19 -10 38 -66 38 -78 0 -4
-12 -15 -19 -31 -19 -26 0 -31 9 -14 26 15 15 -62 40 -87 28 -14 -6 -10 -9 20
-12 20 -2 37 -8 37 -13 0 -12 -44 -29 -76 -29 -26 0 -26 0 -28 77 -2 83 -16
74 -16 -10z m251 -52 c0 -5 -9 -11 -21 -13 -20 -3 -27 8 -13 22 10 9 34 3 34
-9z"/>
<path d="M753 1090 c0 -44 4 -80 9 -80 4 0 8 36 8 80 0 44 -4 80 -9 80 -4 0
-8 -36 -8 -80z"/>
<path d="M999 1138 c-2 -47 1 -90 7 -111 5 -15 19 -17 131 -16 116 2 125 3
132 23 5 11 5 29 2 41 -4 17 -6 15 -11 -10 -4 -23 -11 -31 -32 -33 -22 -3 -27
2 -33 27 -8 39 -44 50 -80 27 l-25 -16 0 50 c0 27 -4 50 -9 50 -4 0 -8 -21 -9
-47 0 -93 0 -93 -26 -93 -28 0 -33 15 -31 88 1 28 -2 52 -7 52 -4 0 -8 -15 -9
-32z m179 -85 c3 -21 -1 -23 -42 -23 -50 0 -54 4 -29 32 23 26 67 20 71 -9z"/>
<path d="M1130 1130 c0 -5 5 -10 10 -10 6 0 10 5 10 10 0 6 -4 10 -10 10 -5 0
-10 -4 -10 -10z"/>
<path d="M1255 1130 c-3 -5 -2 -10 4 -10 5 0 13 5 16 10 3 6 2 10 -4 10 -5 0
-13 -4 -16 -10z"/>
<path d="M460 1120 c0 -5 5 -10 10 -10 6 0 10 5 10 10 0 6 -4 10 -10 10 -5 0
-10 -4 -10 -10z"/>
<path d="M290 1110 c0 -5 5 -10 10 -10 6 0 10 5 10 10 0 6 -4 10 -10 10 -5 0
-10 -4 -10 -10z"/>
<path d="M175 1090 c-3 -5 -1 -10 4 -10 6 0 11 5 11 10 0 6 -2 10 -4 10 -3 0
-8 -4 -11 -10z"/>
<path d="M310 1047 c9 -43 -4 -77 -30 -77 -11 0 -20 -4 -20 -10 0 -20 40 -9
56 15 14 22 15 34 4 103 0 1 -4 2 -9 2 -5 0 -6 -15 -1 -33z"/>
<path d="M902 1068 c-7 -7 -12 -18 -12 -25 0 -8 -7 -16 -15 -19 -18 -7 -20
-60 -3 -70 8 -5 9 0 5 15 -9 37 1 49 38 44 27 -4 34 -1 40 17 12 37 -26 65
-53 38z m38 -23 c0 -8 -9 -15 -20 -15 -20 0 -26 11 -13 23 12 13 33 7 33 -8z"/>
<path d="M223 1030 c7 -33 -12 -60 -43 -60 -23 0 -35 18 -31 48 1 12 -2 22 -8
22 -17 0 -13 -57 5 -74 21 -21 57 -20 77 2 19 21 23 92 6 92 -7 0 -9 -11 -6
-30z"/>
</g>
</svg>
