<svg xmlns="http://www.w3.org/2000/svg" width="140.4" height="55.222" viewBox="0 0 140.4 55.222">
  <g id="Layer_1" data-name="Layer 1" transform="translate(-107.831 -174.52)">
    <path id="Path_5" data-name="Path 5" d="M410.04,213.135a2.1,2.1,0,0,0-1.189-.405,1.987,1.987,0,0,0-1.165.405,1.4,1.4,0,0,0-.568,1.216v22.015q0,1.463-.107,3.191a15.218,15.218,0,0,1-.568,3.3,8.909,8.909,0,0,1-1.434,2.866,5.5,5.5,0,0,1-2.757,1.893,2.71,2.71,0,0,0-1.218.7,1.441,1.441,0,0,0-.3.92,1.826,1.826,0,0,0,.379,1.114,1.316,1.316,0,0,0,1.136.512,6.147,6.147,0,0,0,3.563-1.08,9.025,9.025,0,0,0,2.624-2.842,14.746,14.746,0,0,0,1.624-4.009,18.779,18.779,0,0,0,.568-4.624V214.349A1.376,1.376,0,0,0,410.04,213.135Z" transform="translate(-227.671 -29.7)" fill="#1769cc"/>
    <path id="Path_6" data-name="Path 6" d="M169.467,212.731a10.292,10.292,0,0,0-3.272-2.857,9.618,9.618,0,0,0-4.815-1.136,12.893,12.893,0,0,0-4.6.837,15.57,15.57,0,0,0-4.165,2.381,20.561,20.561,0,0,0-3.6,3.708,23.629,23.629,0,0,0-2.846,4.855v-8.762a1.381,1.381,0,0,0-.6-1.218,2.1,2.1,0,0,0-1.189-.405,1.987,1.987,0,0,0-1.163.405,1.4,1.4,0,0,0-.568,1.218v19.635H125.621v-14.6a12.238,12.238,0,0,0-2.138-7.546,7.114,7.114,0,0,0-6.031-2.842,1.376,1.376,0,0,0-1.216.6,2.1,2.1,0,0,0-.405,1.189,1.987,1.987,0,0,0,.405,1.163,1.4,1.4,0,0,0,1.216.568,4.148,4.148,0,0,1,3.653,2.6,15.311,15.311,0,0,1,1,6.013V231.4H109.4a1.367,1.367,0,0,0-1.165.541,1.8,1.8,0,0,0,0,2.272,1.367,1.367,0,0,0,1.165.541h50.412a11.552,11.552,0,0,0,5.951-1.379,11.089,11.089,0,0,0,3.7-3.49,13.612,13.612,0,0,0,1.92-4.57,21.6,21.6,0,0,0,.541-4.626,15.13,15.13,0,0,0-.586-4.12,11.9,11.9,0,0,0-1.875-3.84ZM167.926,224.9a9.728,9.728,0,0,1-1.405,3.434,6.717,6.717,0,0,1-2.6,2.249,8.92,8.92,0,0,1-4.009.811H146.176v-4.374a46.991,46.991,0,0,1,1.947-4.706,26.133,26.133,0,0,1,3.085-5,17.3,17.3,0,0,1,4.327-3.949,10.39,10.39,0,0,1,5.733-1.595,6.074,6.074,0,0,1,3.189.811,7.018,7.018,0,0,1,2.227,2.082,9.016,9.016,0,0,1,1.272,2.84,12.028,12.028,0,0,1,.405,3.029A20.831,20.831,0,0,1,167.926,224.9Z" transform="translate(0 -24.779)" fill="#1769cc"/>
    <path id="Path_7" data-name="Path 7" d="M489.112,174.52a1.534,1.534,0,0,0-1.532,1.535V228.21a1.532,1.532,0,1,0,3.065,0V176.055A1.535,1.535,0,0,0,489.112,174.52Z" transform="translate(-295.173)" fill="#2a3d4c"/>
    <text id="نظام_المخازن" data-name="نظام المخازن" transform="translate(113.412 221.789)" fill="#2a3d4c" font-size="11" font-family="SegoeUI, Segoe UI"><tspan x="0" y="0">نظام المخازن</tspan></text>
    <path id="Path_8" data-name="Path 8" d="M574.364,231.021a15.653,15.653,0,1,1-4.232-7.534l2.29-2.056a18.661,18.661,0,1,0,4.477,7.3Z" transform="translate(-336.318 -32.176)" fill="#1769cc"/>
    <path id="Path_9" data-name="Path 9" d="M617.016,215.6a1.114,1.114,0,0,0-.788-.4,1.145,1.145,0,0,0-.828.267l-8.586,7.3-2.341,1.991-13.258,11.276-6.612-6.267a.82.82,0,0,0-.236-.151,1.114,1.114,0,0,0-1.256.071,1.149,1.149,0,0,0-.359,1.37,1.051,1.051,0,0,0,.145.245l.766,1.011,5.263,6.9.695.92.134.154a1.829,1.829,0,0,0,.445.347,1.6,1.6,0,0,0,.735.223,1.826,1.826,0,0,0,1.5-.5l.071-.071,13.586-12.848,2.321-2.2,1.318-1.247,6.681-6.327.532-.5a1.14,1.14,0,0,0,.082-1.575Z" transform="translate(-369.075 -31.616)" fill="#2a3d4c"/>
  </g>
</svg>
